<svg xmlns="http://www.w3.org/2000/svg" viewBox="0 0 24 24"><path fill="#d7ecf7" d="M23.2 19.4c-.3.6-.7 1.2-1.2 1.7-2.4 2.4-7.3 1.6-11.3-1.2-.7-.5-1.4-1-2-1.6-.1 0-.8.1-.8 0-2-2-3.2-3.5-3.9-4.6-.8-1.2-.8-2-.5-2.5.2-.2 1.3-1.4 2.5-2.4.8-.7 1.6-1.3 1.9-1.3.1 0 .1 0 .2.1.5.4 1.4 2.2 1.7 2.5.2.2-1.6 1-1.1 1.5.4.4 1 1.1 1.7 1.8.6.6 1.2 1.2 1.7 1.6.4.2.7.5 1.1.7 1.2.6 2.2.9 2.6 1.2l1.8-1.8.5-.5.1-.1c.1-.1.2-.1.3 0 2 1 3.6 2.7 4.7 4.7v.2z"/><path fill="#1e306e" fill-rule="evenodd" d="M15.1 12.7c.1-.1.3-.1.4-.1 2.1 1.1 3.7 2.7 4.8 4.8.1.1.1.2 0 .3-.3.7-.7 1.3-1.2 1.8-2.8 2.9-9.3 1.3-13.6-2.9l-.2-.2C1 12-.6 5.6 2.2 2.7c.5-.5 1.1-.9 1.8-1.2h.3c2.1 1 3.7 2.7 4.8 4.8.1.1 0 .3-.1.4L6.8 8.9c.7 1.3 1.5 2.5 2.5 3.6 1.1.9 2.3 1.7 3.5 2.5l2.3-2.3zm-2 3c-.1.1-.3.1-.5.1-1.4-.8-2.7-1.7-3.9-2.7V13c-1-1.2-1.9-2.6-2.7-4-.1-.1 0-.3.1-.4l2.2-2.2c-1-1.8-2.4-3.2-4.2-4.1-.5.2-1 .6-1.4 1-2.5 2.5-1 8.4 3 12.5l.2.2c4.1 4 10.2 5.5 12.7 3 .4-.4.7-.9 1-1.4-.9-1.8-2.4-3.2-4.1-4.2l-2.4 2.3z" clip-rule="evenodd"/></svg>